<?xml version="1.0" encoding="UTF-8" standalone="no"?>
<!-- Created with Inkscape (http://www.inkscape.org/) -->
<svg
   xmlns:dc="http://purl.org/dc/elements/1.1/"
   xmlns:cc="http://creativecommons.org/ns#"
   xmlns:rdf="http://www.w3.org/1999/02/22-rdf-syntax-ns#"
   xmlns:svg="http://www.w3.org/2000/svg"
   xmlns="http://www.w3.org/2000/svg"
   xmlns:xlink="http://www.w3.org/1999/xlink"
   xmlns:sodipodi="http://sodipodi.sourceforge.net/DTD/sodipodi-0.dtd"
   xmlns:inkscape="http://www.inkscape.org/namespaces/inkscape"
   version="1.0"
   width="350"
   height="200"
   id="svg2"
   sodipodi:version="0.32"
   inkscape:version="0.46"
   sodipodi:docname="TwoCoins.svg"
   inkscape:output_extension="org.inkscape.output.svg.inkscape">
  <metadata
     id="metadata96">
    <rdf:RDF>
      <cc:Work
         rdf:about="">
        <dc:format>image/svg+xml</dc:format>
        <dc:type
           rdf:resource="http://purl.org/dc/dcmitype/StillImage" />
      </cc:Work>
    </rdf:RDF>
  </metadata>
  <sodipodi:namedview
     inkscape:window-height="675"
     inkscape:window-width="818"
     inkscape:pageshadow="2"
     inkscape:pageopacity="0.0"
     guidetolerance="10.0"
     gridtolerance="10.0"
     objecttolerance="10.0"
     borderopacity="1.0"
     bordercolor="#666666"
     pagecolor="#ffffff"
     id="base"
     showgrid="false"
     inkscape:zoom="0.77714286"
     inkscape:cx="185.19789"
     inkscape:cy="74.054672"
     inkscape:window-x="1262"
     inkscape:window-y="110"
     inkscape:current-layer="svg2" />
  <defs
     id="defs4">
    <inkscape:perspective
       sodipodi:type="inkscape:persp3d"
       inkscape:vp_x="0 : 100 : 1"
       inkscape:vp_y="0 : 1000 : 0"
       inkscape:vp_z="350 : 100 : 1"
       inkscape:persp3d-origin="175 : 66.666667 : 1"
       id="perspective98" />
    <linearGradient
       id="linearGradient3318">
      <stop
         id="stop3324"
         style="stop-color:#874f00;stop-opacity:1"
         offset="0" />
      <stop
         id="stop3326"
         style="stop-color:#d57e3b;stop-opacity:1"
         offset="1" />
    </linearGradient>
    <linearGradient
       id="linearGradient3312">
      <stop
         id="stop3314"
         style="stop-color:#d57e3b;stop-opacity:1"
         offset="0" />
      <stop
         id="stop3316"
         style="stop-color:#874f00;stop-opacity:1"
         offset="1" />
    </linearGradient>
    <linearGradient
       id="linearGradient3236">
      <stop
         id="stop3238"
         style="stop-color:#000000;stop-opacity:0"
         offset="0" />
      <stop
         id="stop3240"
         style="stop-color:#000000;stop-opacity:1"
         offset="1" />
    </linearGradient>
    <linearGradient
       id="linearGradient3222">
      <stop
         id="stop3224"
         style="stop-color:#000000;stop-opacity:1"
         offset="0" />
      <stop
         id="stop3226"
         style="stop-color:#000000;stop-opacity:1"
         offset="1" />
    </linearGradient>
    <linearGradient
       id="linearGradient3221">
      <stop
         id="stop3223"
         style="stop-color:#874f00;stop-opacity:1"
         offset="0" />
      <stop
         id="stop3227"
         style="stop-color:#c3a61f;stop-opacity:1"
         offset="1" />
    </linearGradient>
    <linearGradient
       id="linearGradient3196">
      <stop
         id="stop3198"
         style="stop-color:#d5c33b;stop-opacity:1"
         offset="0" />
      <stop
         id="stop3200"
         style="stop-color:#874f00;stop-opacity:1"
         offset="1" />
    </linearGradient>
    <linearGradient
       x1="0.95618147"
       y1="339.30209"
       x2="-252.38475"
       y2="-16.209242"
       id="linearGradient3202"
       xlink:href="#linearGradient3196"
       gradientUnits="userSpaceOnUse"
       gradientTransform="translate(37.142857,48.571429)" />
    <radialGradient
       cx="-19.999998"
       cy="275.21933"
       r="197.07442"
       fx="-19.999998"
       fy="275.21933"
       id="radialGradient3219"
       xlink:href="#linearGradient3221"
       gradientUnits="userSpaceOnUse"
       gradientTransform="matrix(1.0404907,0,0,1.0507422,2.9945894,-10.651992)" />
    <radialGradient
       cx="-98.940788"
       cy="226.31996"
       r="197.07442"
       fx="-98.940788"
       fy="226.31996"
       id="radialGradient3233"
       xlink:href="#linearGradient3221"
       gradientUnits="userSpaceOnUse"
       gradientTransform="matrix(1.5621986,-3.908418e-2,3.4263141e-2,1.3695009,466.21669,-244.30738)" />
    <radialGradient
       cx="440"
       cy="238.07648"
       r="92.695038"
       fx="440"
       fy="238.07648"
       id="radialGradient3253"
       xlink:href="#linearGradient3196"
       gradientUnits="userSpaceOnUse"
       gradientTransform="matrix(2.5950632,-4.272481e-8,4.1996505e-8,2.5508266,-842.52194,-553.92488)" />
    <radialGradient
       cx="-98.940788"
       cy="226.31996"
       r="197.07442"
       fx="-98.940788"
       fy="226.31996"
       id="radialGradient3271"
       xlink:href="#linearGradient3221"
       gradientUnits="userSpaceOnUse"
       gradientTransform="matrix(1.5621986,-3.908418e-2,3.4263141e-2,1.3695009,466.21669,-244.30738)" />
    <radialGradient
       cx="-19.999998"
       cy="275.21933"
       r="197.07442"
       fx="-19.999998"
       fy="275.21933"
       id="radialGradient3273"
       xlink:href="#linearGradient3221"
       gradientUnits="userSpaceOnUse"
       gradientTransform="matrix(1.0404907,0,0,1.0507422,2.9945894,-10.651992)" />
    <radialGradient
       cx="440"
       cy="238.07648"
       r="92.695038"
       fx="440"
       fy="238.07648"
       id="radialGradient3275"
       xlink:href="#linearGradient3196"
       gradientUnits="userSpaceOnUse"
       gradientTransform="matrix(2.5950632,-4.272481e-8,4.1996505e-8,2.5508266,-842.52194,-553.92488)" />
    <linearGradient
       x1="0.95618147"
       y1="339.30209"
       x2="-252.38475"
       y2="-16.209242"
       id="linearGradient3277"
       xlink:href="#linearGradient3196"
       gradientUnits="userSpaceOnUse"
       gradientTransform="translate(37.142857,48.571429)" />
    <linearGradient
       x1="0.95618147"
       y1="339.30209"
       x2="-252.38475"
       y2="-16.209242"
       id="linearGradient2431"
       xlink:href="#linearGradient3196"
       gradientUnits="userSpaceOnUse"
       gradientTransform="matrix(0.3271952,0,0,0.3404499,272.04326,21.611985)" />
    <radialGradient
       cx="440"
       cy="238.07648"
       r="92.695038"
       fx="440"
       fy="238.07648"
       id="radialGradient2435"
       xlink:href="#linearGradient3196"
       gradientUnits="userSpaceOnUse"
       gradientTransform="matrix(0.9583838,-1.5656094e-8,1.5509746e-8,0.9347259,-332.52043,-133.82373)" />
    <radialGradient
       cx="-19.999998"
       cy="275.21933"
       r="197.07442"
       fx="-19.999998"
       fy="275.21933"
       id="radialGradient2439"
       xlink:href="#linearGradient3221"
       gradientUnits="userSpaceOnUse"
       gradientTransform="matrix(0.3404435,0,0,0.3577252,260.87012,1.4493708)" />
    <radialGradient
       cx="-98.940788"
       cy="226.31996"
       r="197.07442"
       fx="-98.940788"
       fy="226.31996"
       id="radialGradient2445"
       xlink:href="#linearGradient3221"
       gradientUnits="userSpaceOnUse"
       gradientTransform="matrix(0.5769362,-1.4322022e-2,1.2653734e-2,0.5018405,150.81032,-20.367384)" />
    <radialGradient
       cx="1336.9653"
       cy="266.16302"
       r="89.937775"
       fx="1336.9653"
       fy="266.16302"
       id="radialGradient3234"
       xlink:href="#linearGradient3222"
       gradientUnits="userSpaceOnUse"
       gradientTransform="matrix(0.1436588,3.9886731e-3,-5.3967739e-3,0.1943739,133.86641,73.245964)" />
    <radialGradient
       cx="168.52808"
       cy="192.07449"
       r="139.93777"
       fx="168.52808"
       fy="192.07449"
       id="radialGradient3246"
       xlink:href="#linearGradient3236"
       gradientUnits="userSpaceOnUse"
       gradientTransform="matrix(0.1702763,-1.0338169e-8,1.0094525e-8,0.1662633,72.487869,71.794081)"
       spreadMethod="reflect" />
    <radialGradient
       cx="1336.9653"
       cy="266.16302"
       r="89.937775"
       fx="1336.9653"
       fy="266.16302"
       id="radialGradient3250"
       xlink:href="#linearGradient3222"
       gradientUnits="userSpaceOnUse"
       gradientTransform="matrix(0.129504,3.5956688e-3,-4.8650293e-3,0.1752222,266.83806,69.985417)" />
    <radialGradient
       cx="168.52808"
       cy="192.07449"
       r="139.93777"
       fx="168.52808"
       fy="192.07449"
       id="radialGradient3252"
       xlink:href="#linearGradient3236"
       gradientUnits="userSpaceOnUse"
       gradientTransform="matrix(0.153499,0,0,0.1498814,211.50715,68.67659)"
       spreadMethod="reflect" />
    <radialGradient
       cx="1336.9653"
       cy="266.16302"
       r="89.937775"
       fx="1336.9653"
       fy="266.16302"
       id="radialGradient3279"
       xlink:href="#linearGradient3222"
       gradientUnits="userSpaceOnUse"
       gradientTransform="matrix(9.6670553e-2,2.6840507e-3,-3.6315872e-3,0.1307977,455.41096,111.73253)" />
    <radialGradient
       cx="168.52808"
       cy="192.07449"
       r="139.93777"
       fx="168.52808"
       fy="192.07449"
       id="radialGradient3281"
       xlink:href="#linearGradient3236"
       gradientUnits="userSpaceOnUse"
       gradientTransform="matrix(0.114582,0,0,0.1118816,414.10822,110.75553)"
       spreadMethod="reflect" />
    <radialGradient
       cx="-19.999998"
       cy="275.21933"
       r="197.07442"
       fx="-19.999998"
       fy="275.21933"
       id="radialGradient3283"
       xlink:href="#linearGradient3318"
       gradientUnits="userSpaceOnUse"
       gradientTransform="matrix(0.2541301,0,0,0.2670303,450.95611,60.572577)" />
    <linearGradient
       x1="601.14526"
       y1="466.57281"
       x2="434.96814"
       y2="328.16702"
       id="linearGradient3298"
       xlink:href="#linearGradient3312"
       gradientUnits="userSpaceOnUse"
       gradientTransform="matrix(0.4816158,0,0,0.4816158,177.28128,-80.40472)" />
    <radialGradient
       cx="-19.999998"
       cy="275.21933"
       r="197.07442"
       fx="-19.999998"
       fy="275.21933"
       id="radialGradient2439-529"
       xlink:href="#linearGradient3221-770"
       gradientUnits="userSpaceOnUse"
       gradientTransform="matrix(0.3404435,0,0,0.3577252,260.87012,1.4493708)" />
    <linearGradient
       id="linearGradient3221-770">
      <stop
         id="stop3798"
         style="stop-color:#575757;stop-opacity:1"
         offset="0" />
      <stop
         id="stop3800"
         style="stop-color:#9f9f9f;stop-opacity:1"
         offset="1" />
    </linearGradient>
    <linearGradient
       x1="0.95618147"
       y1="339.30209"
       x2="-252.38475"
       y2="-16.209242"
       id="linearGradient2431-18"
       xlink:href="#linearGradient3196-132"
       gradientUnits="userSpaceOnUse"
       gradientTransform="matrix(0.3271952,0,0,0.3404499,272.04326,21.611985)" />
    <linearGradient
       id="linearGradient3196-132">
      <stop
         id="stop3804"
         style="stop-color:#b9b9b9;stop-opacity:1"
         offset="0" />
      <stop
         id="stop3806"
         style="stop-color:#575757;stop-opacity:1"
         offset="1" />
    </linearGradient>
    <radialGradient
       cx="1336.9653"
       cy="266.16302"
       r="89.937775"
       fx="1336.9653"
       fy="266.16302"
       id="radialGradient3250-629"
       xlink:href="#linearGradient3222-242"
       gradientUnits="userSpaceOnUse"
       gradientTransform="matrix(0.129504,3.5956688e-3,-4.8650293e-3,0.1752222,266.83806,69.985417)" />
    <linearGradient
       id="linearGradient3222-242">
      <stop
         id="stop3810"
         style="stop-color:#000000;stop-opacity:1"
         offset="0" />
      <stop
         id="stop3812"
         style="stop-color:#000000;stop-opacity:1"
         offset="1" />
    </linearGradient>
    <radialGradient
       cx="168.52808"
       cy="192.07449"
       r="139.93777"
       fx="168.52808"
       fy="192.07449"
       id="radialGradient3252-531"
       xlink:href="#linearGradient3236-291"
       gradientUnits="userSpaceOnUse"
       gradientTransform="matrix(0.153499,0,0,0.1498814,211.50715,68.67659)"
       spreadMethod="reflect" />
    <linearGradient
       id="linearGradient3236-291">
      <stop
         id="stop3816"
         style="stop-color:#000000;stop-opacity:0"
         offset="0" />
      <stop
         id="stop3818"
         style="stop-color:#000000;stop-opacity:1"
         offset="1" />
    </linearGradient>
    <linearGradient
       x1="601.14526"
       y1="466.57281"
       x2="434.96814"
       y2="328.16702"
       id="linearGradient3298-200"
       xlink:href="#linearGradient3312-678"
       gradientUnits="userSpaceOnUse"
       gradientTransform="matrix(0.52935,0,0,0.5128755,-2.4491705,-96.926625)" />
    <linearGradient
       id="linearGradient3312-678">
      <stop
         id="stop3982"
         style="stop-color:#ed8c42;stop-opacity:1"
         offset="0" />
      <stop
         id="stop3984"
         style="stop-color:#965800;stop-opacity:1"
         offset="1" />
    </linearGradient>
    <radialGradient
       cx="1336.9653"
       cy="266.16302"
       r="89.937775"
       fx="1336.9653"
       fy="266.16302"
       id="radialGradient3279-868"
       xlink:href="#linearGradient3222-263"
       gradientUnits="userSpaceOnUse"
       gradientTransform="matrix(0.1062518,2.8582611e-3,-3.9915235e-3,0.1392872,303.24669,107.68144)" />
    <linearGradient
       id="linearGradient3222-263">
      <stop
         id="stop3988"
         style="stop-color:#0a0a0a;stop-opacity:1"
         offset="0" />
      <stop
         id="stop3990"
         style="stop-color:#0a0a0a;stop-opacity:1"
         offset="1" />
    </linearGradient>
    <radialGradient
       cx="168.52808"
       cy="192.07449"
       r="139.93777"
       fx="168.52808"
       fy="192.07449"
       id="radialGradient3281-973"
       xlink:href="#linearGradient3236-24"
       gradientUnits="userSpaceOnUse"
       gradientTransform="matrix(0.1259386,0,0,0.1191434,257.85032,106.64102)"
       spreadMethod="reflect" />
    <linearGradient
       id="linearGradient3236-24">
      <stop
         id="stop3994"
         style="stop-color:#0a0a0a;stop-opacity:0"
         offset="0" />
      <stop
         id="stop3996"
         style="stop-color:#0a0a0a;stop-opacity:1"
         offset="1" />
    </linearGradient>
    <radialGradient
       cx="-19.999998"
       cy="275.21933"
       r="197.07442"
       fx="-19.999998"
       fy="275.21933"
       id="radialGradient3283-997"
       xlink:href="#linearGradient3318-333"
       gradientUnits="userSpaceOnUse"
       gradientTransform="matrix(0.2793176,0,0,0.2843621,298.3503,53.200912)" />
    <linearGradient
       id="linearGradient3318-333">
      <stop
         id="stop4000"
         style="stop-color:#965800;stop-opacity:1"
         offset="0" />
      <stop
         id="stop4002"
         style="stop-color:#ed8c42;stop-opacity:1"
         offset="1" />
    </linearGradient>
  </defs>
  <path
     d="M 302.52322,97.464963 C 302.52322,133.14677 273.33728,162.10587 237.37607,162.10587 C 201.41481,162.10587 172.22889,133.14677 172.22889,97.464963 C 172.22889,61.783183 201.41481,32.824059 237.37607,32.824059 C 273.33728,32.824059 302.52322,61.783183 302.52322,97.464963 z"
     id="path3248"
     style="fill:url(#radialGradient3250-629);fill-opacity:1;fill-rule:nonzero;stroke:url(#radialGradient3252-531);stroke-width:41.60746002;stroke-miterlimit:4;stroke-dasharray:none;stroke-dashoffset:0;stroke-opacity:1" />
  <path
     d="M 313.59361,91.989317 C 313.59361,137.12964 280.01311,173.76527 238.63716,173.76527 C 197.26118,173.76527 163.6807,137.12964 163.6807,91.989317 C 163.6807,46.848994 197.26118,10.213381 238.63716,10.213381 C 280.01311,10.213381 313.59361,46.848994 313.59361,91.989317 z"
     id="path3229"
     style="fill:#828282;fill-opacity:1;fill-rule:nonzero;stroke:none;stroke-width:44.10216141;stroke-miterlimit:4;stroke-dashoffset:0;stroke-opacity:1" />
  <path
     d="M 304.25084,86.942549 C 304.25084,129.18927 271.29856,163.47646 230.69663,163.47646 C 190.09472,163.47646 157.14243,129.18927 157.14243,86.942549 C 157.14243,44.695828 190.09472,10.408637 230.69663,10.408637 C 271.29856,10.408637 304.25084,44.695828 304.25084,86.942549 z"
     id="path1295"
     style="fill:none;fill-opacity:1;fill-rule:nonzero;stroke:#d7d7d7;stroke-width:14.71939182;stroke-miterlimit:4;stroke-dashoffset:0;stroke-opacity:1" />
  <path
     d="M 297.80927,86.615309 C 297.80927,125.53047 267.75173,157.1138 230.71656,157.1138 C 193.68138,157.1138 163.62385,125.53047 163.62385,86.615309 C 163.62385,47.700147 193.68138,16.116833 230.71656,16.116833 C 267.75173,16.116833 297.80927,47.700147 297.80927,86.615309 z"
     id="path3209"
     style="fill:url(#radialGradient2439-529);fill-opacity:1;fill-rule:nonzero;stroke:none;stroke-width:36.70064163;stroke-miterlimit:4;stroke-dashoffset:0;stroke-opacity:1" />
  <path
     d="M 295.7981,84.58128 C 295.7981,121.83673 266.23055,152.07302 229.79908,152.07302 C 193.36763,152.07302 163.80007,121.83673 163.80007,84.58128 C 163.80007,47.325844 193.36763,17.089546 229.79908,17.089546 C 266.23055,17.089546 295.7981,47.325844 295.7981,84.58128 z"
     id="path3207"
     style="fill:#a7a7a7;fill-opacity:1;fill-rule:nonzero;stroke:none;stroke-width:36.70064163;stroke-miterlimit:4;stroke-dashoffset:0;stroke-opacity:1" />
  <path
     d="M 173.45195,103.729 C 173.45195,143.31079 141.07602,175.43511 101.18425,175.43511 C 61.292461,175.43511 28.916528,143.31079 28.916528,103.729 C 28.916528,64.14723 61.292461,32.022894 101.18425,32.022894 C 141.07602,32.022894 173.45195,64.14723 173.45195,103.729 z"
     id="path2449"
     style="fill:url(#radialGradient3234);fill-opacity:1;fill-rule:nonzero;stroke:url(#radialGradient3246);stroke-width:46.15513229;stroke-miterlimit:4;stroke-dasharray:none;stroke-dashoffset:0;stroke-opacity:1" />
  <path
     d="M 189.50827,136.43316 C 189.89976,134.98636 190.23906,132.91091 190.34081,131.34062 C 190.40231,130.39152 191.2558,127.93982 192.38704,125.46279 C 193.45444,123.12555 194.32777,121.12272 194.32777,121.01207 C 194.32777,120.90142 194.73162,120.24266 195.22524,119.54818 C 195.71886,118.85369 196.63819,116.97734 197.2682,115.37852 C 197.97702,113.5797 198.78231,112.21882 199.38077,111.80847 C 204.11563,108.56191 205.68187,107.15577 207.70212,104.33777 C 208.93605,102.61656 209.44456,102.22927 210.89235,101.90799 C 212.0897,101.64229 213.36341,100.87595 215.0711,99.393833 C 216.42213,98.221261 217.61819,97.044481 217.72904,96.778766 C 218.11099,95.863067 216.43052,91.340939 215.30377,90.252398 C 214.59089,89.563671 214.27333,88.929795 214.39624,88.440763 C 214.54269,87.85799 214.21634,87.515833 212.94737,86.921816 C 212.04652,86.500106 210.49967,85.530331 209.50993,84.766741 C 208.52018,84.00316 207.17968,83.070052 206.53104,82.693205 C 204.3307,81.414865 203.53957,77.798537 205.21094,76.659059 C 206.98902,75.446821 208.5291,71.6766 207.24624,71.6766 C 206.98233,71.6766 206.89391,71.188879 207.01252,70.387414 C 207.12757,69.609984 206.99988,68.857077 206.69085,68.490729 C 206.26157,67.981821 206.26301,67.627685 206.6997,66.309034 C 207.41157,64.15943 206.9858,63.743172 204.07524,63.743172 C 200.30888,63.743172 199.23599,62.190616 201.17453,59.545621 C 201.80102,58.690819 202.92809,57.065463 203.67912,55.933718 C 204.43016,54.801963 206.15016,52.799923 207.50137,51.484745 C 209.70674,49.338153 209.95808,48.935855 209.95808,47.552754 C 209.95808,46.476207 210.29683,45.525441 211.08243,44.397015 C 211.70083,43.508764 212.92308,41.295333 213.79855,39.478272 C 214.67401,37.661218 215.71203,35.700724 216.10524,35.121623 C 216.49846,34.54252 216.82018,33.453663 216.82018,32.701941 C 216.82018,30.920531 218.60769,28.338828 220.30207,27.672993 C 221.00798,27.395608 222.52908,26.753208 223.68228,26.245448 C 225.66946,25.370493 226.1476,25.329304 232.83175,25.457346 C 238.055,25.557401 240.31716,25.755902 241.55262,26.222602 C 242.47009,26.569187 244.04378,26.852758 245.04969,26.852758 C 246.49471,26.852758 247.13508,27.081773 248.10005,27.943609 C 248.77178,28.543571 250.80056,29.841401 252.60844,30.827674 C 256.165,32.767923 257.69859,34.56737 258.76698,38.053881 C 259.05192,38.98376 259.70703,40.280081 260.22278,40.934591 C 261.82029,42.961968 262.53563,45.060579 262.31167,47.063088 C 262.20065,48.055797 262.30691,49.849775 262.54776,51.049699 C 263.73287,56.953356 264.09058,59.420192 264.24079,62.724734 C 264.33076,64.702977 264.68218,67.303302 265.02173,68.503217 C 265.74855,71.071507 265.86599,71.791568 266.41266,77.031667 C 266.68455,79.637865 266.70457,81.934175 266.47113,83.726812 C 265.97058,87.56941 266.56124,94.152327 267.53188,95.549729 C 267.93861,96.135216 268.44459,97.418753 268.65638,98.402014 C 269.03214,100.14663 270.80984,103.69692 272.01296,105.10551 C 272.85594,106.09243 272.10985,106.76396 270.17039,106.76396 C 268.74462,106.76396 268.65673,106.82956 268.82915,107.76467 C 269.22347,109.90294 270.65225,117.90972 270.70656,118.28546 C 270.73809,118.50364 270.42079,118.64763 270.00142,118.60546 C 269.58207,118.5633 267.7808,118.41845 265.99856,118.28355 C 264.21629,118.14867 261.76385,117.86146 260.54863,117.64532 C 257.41243,117.08746 251.02623,117.06828 247.89025,117.60726 C 246.4225,117.85953 244.53543,118.16581 243.69673,118.28792 C 242.18199,118.50844 239.0152,119.71456 235.25075,121.50468 C 234.12183,122.04152 232.79125,123.08874 232.12365,123.96575 C 231.01547,125.42165 230.85052,125.49642 228.56096,125.58033 C 223.54589,125.76416 208.96709,129.87604 196.87014,134.51854 C 193.13141,135.95339 189.90323,137.12735 189.69643,137.12735 C 189.48963,137.12735 189.40495,136.81498 189.50827,136.43316 z"
     id="path3194"
     style="fill:url(#linearGradient2431-18);fill-opacity:1" />
  <path
     d="M 192.54721,137.59474 C 192.93872,136.14795 193.27802,134.0725 193.37976,132.50219 C 193.44128,131.55308 194.29477,129.10139 195.42599,126.62435 C 196.49338,124.28711 197.36671,122.28428 197.36671,122.17364 C 197.36671,122.06299 197.77058,121.40425 198.26421,120.70974 C 198.75783,120.01525 199.67715,118.13892 200.30716,116.5401 C 201.01599,114.74128 201.82129,113.3804 202.41973,112.97006 C 207.15457,109.72349 208.72083,108.31735 210.74109,105.49933 C 211.97501,103.77815 212.48352,103.39086 213.93131,103.06955 C 215.12867,102.80385 216.40236,102.03752 218.11005,100.5554 C 219.46108,99.38282 220.65716,98.206058 220.76799,97.940334 C 221.14994,97.024653 219.46948,92.502512 218.34272,91.413975 C 217.62982,90.725248 217.31229,90.091354 217.43519,89.602349 C 217.58165,89.019558 217.25527,88.6774 215.98633,88.083402 C 215.08547,87.661692 213.53861,86.691918 212.54887,85.928327 C 211.55914,85.164727 210.21865,84.231637 209.56998,83.854771 C 207.36967,82.576433 206.57853,78.960122 208.24989,77.820633 C 210.02797,76.608395 211.56807,72.838175 210.28517,72.838175 C 210.02128,72.838175 209.93287,72.350453 210.05146,71.548999 C 210.16653,70.771558 210.03884,70.018651 209.72981,69.652303 C 209.30052,69.143394 209.30198,68.789259 209.73866,67.470619 C 210.45052,65.321004 210.02476,64.904757 207.11419,64.904757 C 203.34784,64.904757 202.27494,63.35219 204.21348,60.707198 C 204.83998,59.852396 205.96705,58.227041 206.71807,57.095288 C 207.4691,55.963543 209.18911,53.961502 210.54031,52.646316 C 212.74568,50.499722 212.99706,50.097424 212.99706,48.714323 C 212.99706,47.637787 213.33578,46.68701 214.12139,45.558583 C 214.73978,44.670343 215.96203,42.456903 216.8375,40.639851 C 217.71296,38.822788 218.75098,36.862294 219.14421,36.283191 C 219.53741,35.704089 219.85913,34.615232 219.85913,33.863518 C 219.85913,32.082109 221.64664,29.500397 223.34105,28.83457 C 224.04694,28.557178 225.56803,27.914787 226.72124,27.407027 C 228.70842,26.532071 229.18655,26.490884 235.87071,26.618915 C 241.09395,26.71897 243.35613,26.917481 244.59155,27.384171 C 245.50904,27.730765 247.08274,28.014335 248.08865,28.014335 C 249.53366,28.014335 250.17403,28.243341 251.139,29.105178 C 251.81073,29.705141 253.8395,31.00297 255.6474,31.989244 C 259.20395,33.929493 260.73753,35.728949 261.80593,39.215452 C 262.09087,40.14533 262.74597,41.441651 263.26174,42.096161 C 264.85925,44.123538 265.57457,46.222158 265.35063,48.224657 C 265.2396,49.217366 265.34585,51.011334 265.5867,52.211279 C 266.77183,58.114933 267.12954,60.581757 267.27975,63.886308 C 267.36972,65.864552 267.72113,68.464865 268.06068,69.664803 C 268.7875,72.23307 268.90493,72.953142 269.4516,78.19323 C 269.72349,80.79945 269.74354,83.095733 269.51008,84.888378 C 269.00955,88.730968 269.60018,95.313904 270.57085,96.711296 C 270.97757,97.296793 271.48355,98.580321 271.69533,99.563591 C 272.07111,101.3082 273.84879,104.8585 275.05191,106.26709 C 275.8949,107.25401 275.14882,107.92553 273.20933,107.92553 C 271.78356,107.92553 271.69567,107.99112 271.86811,108.92624 C 272.26241,111.06451 273.69122,119.07128 273.74552,119.44705 C 273.77704,119.6652 273.45972,119.80921 273.04037,119.76703 C 272.62103,119.72487 270.81974,119.58 269.03752,119.44512 C 267.25525,119.31025 264.8028,119.02304 263.58758,118.80689 C 260.45138,118.24902 254.06519,118.22982 250.92921,118.76883 C 249.46144,119.02108 247.57438,119.32738 246.73568,119.44948 C 245.22093,119.67001 242.05416,120.87613 238.28971,122.66626 C 237.16079,123.2031 235.8302,124.2503 235.16262,125.12732 C 234.05442,126.58322 233.88947,126.65799 231.59992,126.74191 C 226.58485,126.92574 212.00604,131.03761 199.9091,135.68013 C 196.17035,137.11497 192.94218,138.28892 192.73539,138.28892 C 192.52859,138.28892 192.4439,137.97655 192.54721,137.59474 z"
     id="path1331"
     style="fill:#cbcbcb;fill-opacity:1;stroke:none" />
  <path
     d="M 186.59916,96.13457 C 186.59916,144.72097 148.69632,184.15342 101.9946,184.15342 C 55.292891,184.15342 17.390065,144.72097 17.390065,96.13457 C 17.390065,47.548154 55.292891,8.1157113 101.9946,8.1157113 C 148.69632,8.1157113 186.59916,47.548154 186.59916,96.13457 z"
     id="path3239"
     style="fill:#ab8312;fill-opacity:1;fill-rule:nonzero;stroke:none;stroke-width:44.10216141;stroke-miterlimit:4;stroke-dashoffset:0;stroke-opacity:1" />
  <path
     d="M 175.19756,92.415014 C 175.19756,137.88693 138.00379,174.79164 92.17576,174.79164 C 46.347723,174.79164 9.1539636,137.88693 9.1539636,92.415014 C 9.1539636,46.943116 46.347723,10.038392 92.17576,10.038392 C 138.00379,10.038392 175.19756,46.943116 175.19756,92.415014 z"
     id="path3241"
     style="fill:none;fill-opacity:1;fill-rule:nonzero;stroke:#dfba3b;stroke-width:16.22397423;stroke-miterlimit:4;stroke-dashoffset:0;stroke-opacity:1" />
  <path
     d="M 168.21339,94.626155 C 168.21339,136.51216 134.28697,170.50659 92.484774,170.50659 C 50.682585,170.50659 16.756165,136.51216 16.756165,94.626155 C 16.756165,52.740156 50.682585,18.745719 92.484774,18.745719 C 134.28697,18.745719 168.21339,52.740156 168.21339,94.626155 z"
     id="path3231"
     style="fill:url(#radialGradient2445);fill-opacity:1;fill-rule:nonzero;stroke:none;stroke-width:36.70064163;stroke-miterlimit:4;stroke-dashoffset:0;stroke-opacity:1" />
  <path
     d="M 164.81598,92.062805 C 164.81598,133.0819 131.26439,166.37278 89.924024,166.37278 C 48.583646,166.37278 15.03204,133.0819 15.03204,92.062805 C 15.03204,51.043687 48.583646,17.752819 89.924024,17.752819 C 131.26439,17.752819 164.81598,51.043687 164.81598,92.062805 z"
     id="path3243"
     style="fill:#c6a948;fill-opacity:1;fill-rule:nonzero;stroke:none;stroke-width:36.70064163;stroke-miterlimit:4;stroke-dashoffset:0;stroke-opacity:1" />
  <path
     d="M 56.859547,145.00829 C 53.745956,144.45582 50.50879,142.72814 48.209445,140.39169 L 46.433607,138.5872 L 46.433607,134.59281 L 46.433607,130.59842 L 48.677476,127.63883 C 51.415491,124.02751 51.86754,122.92087 51.49603,120.73891 C 51.273618,119.43276 51.497653,118.43276 52.474207,116.37269 C 54.337266,112.44248 55.391331,111.1847 56.821944,111.1847 C 57.495644,111.1847 58.414606,110.7815 58.864073,110.2887 C 60.235024,108.78558 67.009224,106.96864 67.615209,107.9415 C 67.964018,108.50149 69.701036,108.62848 69.741587,108.09695 C 69.94793,105.39228 70.094998,101.97924 70.052052,100.89221 C 69.92052,97.563154 70.100569,95.545409 70.645726,94.239523 C 71.367241,92.511143 70.982224,92.054471 68.299229,91.456326 C 67.205473,91.212489 65.003481,90.412684 63.40591,89.678989 C 59.641924,87.950339 58.487378,86.273174 58.881598,83.106616 C 59.115757,81.225715 59.004323,80.710152 58.174124,79.833309 C 57.359768,78.973211 57.279298,78.624592 57.710566,77.825041 C 57.997577,77.292915 58.073724,76.604487 57.87979,76.295193 C 57.685847,75.985899 57.520661,74.708355 57.512704,73.456206 C 57.500087,71.471972 57.346429,71.106818 56.316389,70.613117 C 54.394007,69.69172 53.497736,68.438871 53.827704,67.134371 C 53.988843,66.497333 55.851743,64.326176 57.967465,62.30957 C 62.642438,57.85364 63.14919,57.115098 63.992342,53.52894 C 64.356944,51.97814 65.626921,48.977883 66.814508,46.861704 C 68.519406,43.823719 69.755085,42.333015 72.687023,39.777243 C 80.10205,33.313553 84.100433,31.767771 92.300891,32.194506 C 98.280436,32.505669 102.03544,33.347783 105.2967,35.108984 C 109.09823,37.161953 111.0066,39.525494 114.45881,46.456477 C 117.05719,51.67321 117.77815,53.613958 118.34691,56.92323 C 119.53821,63.854083 118.99103,69.294437 116.55228,74.765952 C 115.46638,77.202246 115.45288,77.333894 116.28834,77.333894 C 116.77269,77.333894 117.87786,76.716347 118.74423,75.961563 C 119.61062,75.206784 120.54343,74.589234 120.81715,74.589234 C 121.09086,74.589234 121.53893,75.415106 121.81287,76.424508 C 122.28058,78.148079 122.23259,78.329116 121.02382,79.398922 C 119.75276,80.523884 119.7482,80.546943 120.65878,81.251595 C 121.22497,81.689736 122.06822,81.8707 122.84362,81.720448 C 124.77836,81.345552 125.3882,81.797099 126.19265,84.200262 C 126.59992,85.416907 127.23047,86.657183 127.59386,86.956425 C 129.40411,88.447114 130.23207,90.740947 130.85985,96.004707 C 132.29319,108.02312 132.25256,108.34832 129.52602,106.67632 C 126.4411,104.78456 125.51768,105.51688 126.92154,108.7418 C 128.09965,111.44808 130.82122,122.98798 131.44591,127.92611 L 131.90325,131.54092 L 129.73873,133.76664 C 125.38627,138.24207 120.54343,139.26739 114.56069,136.98008 C 106.09192,133.74232 102.96266,133.40375 96.427437,135.01808 C 94.28727,135.54675 90.669032,136.86548 88.386965,137.94862 C 81.641869,141.14995 76.46152,143.14983 72.388177,144.12497 C 67.884487,145.20311 60.367427,145.63071 56.859547,145.00829 z M 118.58416,115.14201 C 118.58416,115.05418 117.74915,112.14896 116.72858,108.68594 C 114.56087,101.33051 112.70318,96.802102 110.7416,94.091882 C 109.50997,92.390188 109.31897,91.710802 109.19952,88.605734 C 109.08167,85.543411 108.90788,84.907692 107.92035,83.927877 L 106.77756,82.793978 L 105.18919,83.858131 C 103.66333,84.880417 103.60649,85.020513 103.74502,87.417943 C 103.82432,88.79054 104.17018,90.531127 104.5136,91.285914 C 104.85705,92.04069 105.28591,93.450584 105.46663,94.419002 C 105.70364,95.689034 106.37476,96.708952 107.87476,98.07855 C 109.46885,99.534089 110.59047,101.31211 112.67966,105.69537 C 115.86525,112.37886 117.5274,115.30169 118.14258,115.30169 C 118.38545,115.30169 118.58416,115.22983 118.58416,115.14201 z"
     id="path3245"
     style="fill:url(#radialGradient2435);fill-opacity:1" />
  <path
     d="M 60.072579,146.88936 C 56.958988,146.3369 53.721811,144.60922 51.422477,142.27277 L 49.646638,140.46829 L 49.646638,136.4739 L 49.646638,132.4795 L 51.890498,129.51991 C 54.628513,125.90859 55.080572,124.80194 54.709052,122.61999 C 54.486649,121.31384 54.710675,120.31384 55.687229,118.25377 C 57.550298,114.32356 58.604374,113.06577 60.034966,113.06577 C 60.708676,113.06577 61.627637,112.66257 62.077104,112.16978 C 63.448066,110.66666 70.222265,108.84972 70.82824,109.82259 C 71.177039,110.38257 72.914068,110.50956 72.95462,109.97803 C 73.160962,107.27335 73.308029,103.86032 73.265083,102.77329 C 73.133541,99.444243 73.31361,97.426479 73.858748,96.120603 C 74.580273,94.392223 74.195246,93.935545 71.512271,93.337402 C 70.418514,93.093565 68.216513,92.293761 66.618943,91.560055 C 62.854946,89.831416 61.700419,88.154251 62.094629,84.987693 C 62.328788,83.106792 62.217364,82.591229 61.387155,81.714387 C 60.57281,80.854289 60.492339,80.505669 60.923588,79.706115 C 61.210599,79.173995 61.286765,78.485565 61.092822,78.17627 C 60.898888,77.86698 60.733692,76.589436 60.725725,75.337285 C 60.713109,73.353049 60.55947,72.987896 59.529421,72.494194 C 57.607048,71.572799 56.710767,70.31995 57.040745,69.015448 C 57.201874,68.378413 59.064775,66.207253 61.180507,64.190648 C 65.855459,59.734719 66.362221,58.996176 67.205364,55.410018 C 67.569986,53.859216 68.839963,50.858962 70.02753,48.742782 C 71.732428,45.704797 72.968117,44.214093 75.900045,41.658324 C 83.315071,35.19463 87.313465,33.648847 95.513916,34.075583 C 101.49346,34.386743 105.24848,35.22886 108.50972,36.990063 C 112.31126,39.043031 114.21962,41.406576 117.67184,48.337554 C 120.27022,53.554288 120.99118,55.495035 121.55996,58.804308 C 122.75124,65.735162 122.20404,71.175519 119.76531,76.64703 C 118.67942,79.08332 118.6659,79.214972 119.50137,79.214972 C 119.98573,79.214972 121.0909,78.597425 121.95725,77.842641 C 122.82367,77.087861 123.75645,76.470311 124.03016,76.470311 C 124.30388,76.470311 124.75195,77.296187 125.02589,78.305586 C 125.4936,80.029162 125.44561,80.210192 124.23684,81.28 C 122.9658,82.404962 122.96124,82.428021 123.87179,83.132672 C 124.43799,83.570824 125.28126,83.751778 126.05666,83.601525 C 127.99139,83.226629 128.60125,83.678177 129.40568,86.08134 C 129.81296,87.297985 130.4435,88.53826 130.80688,88.837502 C 132.61715,90.328191 133.44511,92.622026 134.07289,97.885778 C 135.50621,109.9042 135.4656,110.22941 132.73904,108.5574 C 129.65414,106.66562 128.7307,107.39796 130.13457,110.62287 C 131.31267,113.32917 134.03425,124.86906 134.65894,129.80719 L 135.11628,133.42201 L 132.95176,135.64772 C 128.59931,140.12315 123.75645,141.14847 117.77372,138.86116 C 109.30495,135.6234 106.17569,135.28483 99.640462,136.89916 C 97.500285,137.42783 93.882074,138.74657 91.599987,139.82968 C 84.85491,143.03103 79.674561,145.03091 75.601199,146.00605 C 71.097528,147.08419 63.580449,147.51178 60.072579,146.88936 z M 121.79719,117.02309 C 121.79719,116.93527 120.96218,114.03003 119.9416,110.56703 C 117.77391,103.21158 115.9162,98.683182 113.95463,95.972962 C 112.723,94.271268 112.532,93.591883 112.41254,90.486811 C 112.29471,87.424487 112.1209,86.788769 111.13339,85.808955 L 109.99059,84.675045 L 108.40221,85.739209 C 106.87636,86.761495 106.81951,86.90159 106.95806,89.299021 C 107.03735,90.671618 107.38321,92.412204 107.72662,93.166988 C 108.0701,93.921773 108.49894,95.331664 108.67967,96.300082 C 108.91667,97.570114 109.5878,98.590022 111.08778,99.959621 C 112.68188,101.41517 113.80351,103.1932 115.89269,107.57645 C 119.0783,114.25994 120.74043,117.18276 121.35562,117.18276 C 121.59849,117.18276 121.79719,117.11091 121.79719,117.02309 z"
     id="path1932"
     style="fill:#d5c33b;fill-opacity:1" />
  <path
     d="M 332.52466,129.52542 C 332.52466,157.88953 308.579,180.90963 279.07456,180.90963 C 249.57006,180.90963 225.62441,157.88953 225.62441,129.52542 C 225.62441,101.16135 249.57006,78.141217 279.07456,78.141217 C 308.579,78.141217 332.52466,101.16135 332.52466,129.52542 z"
     id="path3265"
     style="fill:url(#radialGradient3279-868);fill-opacity:1;fill-rule:nonzero;stroke:url(#radialGradient3281-973);stroke-width:33.60152054;stroke-miterlimit:4;stroke-dasharray:none;stroke-dashoffset:0;stroke-opacity:1" />
  <path
     d="M 341.6074,125.17274 C 341.6074,161.05558 314.0562,190.1779 280.10921,190.1779 C 246.1622,190.1779 218.61103,161.05558 218.61103,125.17274 C 218.61103,89.289888 246.1622,60.167576 280.10921,60.167576 C 314.0562,60.167576 341.6074,89.289888 341.6074,125.17274 z"
     id="path3267"
     style="fill:#c87626;fill-opacity:1;fill-rule:nonzero;stroke:none;stroke-width:44.10216141;stroke-miterlimit:4;stroke-dashoffset:0;stroke-opacity:1" />
  <path
     d="M 333.9421,121.16096 C 333.9421,154.74364 306.90632,181.99913 273.59439,181.99913 C 240.28247,181.99913 213.24669,154.74364 213.24669,121.16096 C 213.24669,87.578292 240.28247,60.322803 273.59439,60.322803 C 306.90632,60.322803 333.9421,87.578292 333.9421,121.16096 z"
     id="path3269"
     style="fill:#0a0a0a;fill-opacity:0;fill-rule:nonzero;stroke:#d19e5d;stroke-width:11.887146;stroke-miterlimit:4;stroke-dashoffset:0;stroke-opacity:1" />
  <path
     d="M 328.6571,120.90084 C 328.6571,151.83519 303.99633,176.94134 273.61074,176.94134 C 243.22516,176.94134 218.56438,151.83519 218.56438,120.90084 C 218.56438,89.966486 243.22516,64.860348 273.61074,64.860348 C 303.99633,64.860348 328.6571,89.966486 328.6571,120.90084 z"
     id="path3271"
     style="fill:url(#radialGradient3283-997);fill-opacity:1;fill-rule:nonzero;stroke:none;stroke-width:36.70064163;stroke-miterlimit:4;stroke-dashoffset:0;stroke-opacity:1" />
  <path
     d="M 327.00703,119.28396 C 327.00703,148.89898 302.74827,172.93434 272.85799,172.93434 C 242.96773,172.93434 218.70897,148.89898 218.70897,119.28396 C 218.70897,89.668951 242.96773,65.633572 272.85799,65.633572 C 302.74827,65.633572 327.00703,89.668951 327.00703,119.28396 z"
     id="path3273"
     style="fill:#b78b50;fill-opacity:1;fill-rule:nonzero;stroke:none;stroke-width:36.70064163;stroke-miterlimit:4;stroke-dashoffset:0;stroke-opacity:1" />
  <path
     d="M 251.40867,164.253 C 250.88816,164.13979 250.04534,163.28004 250.03205,162.84872 C 250.02751,162.70106 249.77988,162.27981 249.48178,161.91265 C 249.08783,161.4274 248.9351,160.89789 248.92268,159.97414 C 248.9133,159.27515 248.82175,158.62203 248.71925,158.52278 C 248.61674,158.42352 248.53219,158.06245 248.53136,157.72038 C 248.53051,157.37832 248.36942,156.80052 248.17337,156.43639 C 247.84307,155.82292 247.85232,155.77433 248.29914,155.77433 C 248.59873,155.77433 248.78137,155.6094 248.78137,155.33884 C 248.78137,155.09933 248.93518,154.69954 249.12319,154.45043 C 249.35238,154.14675 249.40081,153.78056 249.27013,153.33917 C 249.16296,152.97707 249.12984,152.62794 249.19651,152.56336 C 249.2632,152.49875 249.36012,150.43352 249.4119,147.97392 C 249.46445,145.47713 249.63976,143.04876 249.8088,142.47585 C 249.97534,141.91149 250.09584,141.3801 250.07659,141.29501 C 250.05733,141.20991 250.30352,140.86646 250.62368,140.53176 C 251.07294,140.06208 251.22915,139.57544 251.30821,138.39934 C 251.36456,137.56121 251.60177,136.50672 251.83537,136.05604 C 252.069,135.60536 252.26012,135.04298 252.26012,134.80632 C 252.26012,134.56966 252.35661,134.31825 252.47453,134.24764 C 252.59244,134.17702 252.83346,133.61909 253.0101,133.00775 C 253.18676,132.39644 253.48166,131.84037 253.66542,131.77206 C 253.84917,131.70373 253.99951,131.50851 253.99951,131.33822 C 253.99951,131.16795 254.16828,130.96588 254.37454,130.88918 C 254.58081,130.8125 254.72059,130.61775 254.68515,130.45642 C 254.64972,130.29507 254.83921,130.11735 255.10625,130.06149 C 255.64754,129.94822 256.15456,129.50869 258.79327,126.8653 C 259.46315,126.19426 259.94379,125.92137 260.45589,125.92137 C 260.85204,125.92137 261.24529,125.81302 261.32976,125.6806 C 261.53647,125.35657 263.52198,125.37303 263.86109,125.70159 C 264.36332,126.18819 264.39352,125.56274 263.9552,123.75202 L 263.51877,121.949 L 261.43031,121.79649 C 258.55132,121.58625 255.45482,120.57432 254.31694,119.47187 C 253.48272,118.66362 253.44756,118.56234 253.57753,117.34224 C 253.7526,115.69876 253.38971,114.41493 252.65887,114.09231 C 252.34807,113.95511 251.91106,113.54315 251.68774,113.17685 C 251.33231,112.59388 251.3262,112.45392 251.63876,112.05381 C 252.15635,111.39132 252.09419,111.1086 251.35965,110.78435 C 250.74187,110.51163 250.71627,110.43067 250.87162,109.24102 C 251.24169,106.40685 251.01843,106.02911 248.83989,105.80305 C 246.83608,105.59515 246.29654,105.14907 246.29654,103.70034 C 246.29654,102.84634 246.53984,102.30946 247.68759,100.63079 C 248.45264,99.51181 249.2507,98.271249 249.46102,97.874018 C 249.67131,97.476776 250.16942,96.749797 250.5679,96.25847 C 251.17492,95.510033 251.26565,95.226982 251.1274,94.513037 C 250.97951,93.74918 251.0185,93.660899 251.50378,93.660899 C 251.90178,93.660899 252.01173,93.549318 251.91894,93.239591 C 251.21617,90.893379 251.21486,90.785302 251.87339,89.504913 C 252.22276,88.82563 252.50863,88.141961 252.50863,87.985628 C 252.50863,87.414531 254.1099,83.875715 254.93304,82.627664 C 255.86908,81.208464 257.1162,79.965755 258.53539,79.038104 C 259.04845,78.702736 259.8139,77.842983 260.23638,77.127572 C 260.98402,75.861502 262.80349,73.940553 264.31156,72.825103 C 264.72156,72.521834 266.14424,71.723531 267.47308,71.051078 C 271.8746,68.823733 277.47475,67.882576 281.33367,68.721664 C 283.75251,69.247612 285.12301,69.754118 288.22494,71.268456 C 292.12988,73.174817 294.69434,75.961968 296.00089,79.71965 C 296.70583,81.747117 296.6855,85.78055 295.95898,88.038098 C 295.66685,88.945834 295.40255,90.067704 295.37163,90.531152 C 295.34073,90.994588 295.23755,92.348818 295.14238,93.540533 C 295.02245,95.042433 295.0883,96.514261 295.35702,98.337241 C 295.59538,99.954416 295.74468,102.66625 295.74468,105.37916 C 295.74468,107.85303 295.84351,109.79113 295.96967,109.79113 C 296.09341,109.79113 296.62454,109.58227 297.14995,109.32701 C 299.78033,108.04907 301.57887,107.36436 302.13137,107.4306 C 302.62348,107.48958 302.83454,107.75447 303.20528,108.77841 C 303.45906,109.47934 304.00877,110.36241 304.42686,110.74081 C 304.84495,111.11922 305.18702,111.61699 305.18702,111.84699 C 305.18702,112.07697 305.63429,112.73528 306.18096,113.30989 C 307.0543,114.22786 307.17489,114.49559 307.17489,115.51652 C 307.17489,116.52715 307.28749,116.78417 308.0399,117.49071 C 309.08436,118.47155 309.51554,119.62189 309.33299,120.94058 C 309.25822,121.48058 309.3223,122.14504 309.47539,122.4172 C 309.93278,123.23033 309.9411,128.51039 309.48689,129.70598 C 309.2746,130.26477 309.15702,130.92989 309.22562,131.184 C 309.29421,131.43814 309.27438,131.76512 309.18156,131.91063 C 308.93716,132.29374 306.63733,132.66477 305.55841,132.49514 L 304.63518,132.34998 L 304.81354,135.57637 C 304.96262,138.2733 304.64154,144.08254 304.32545,144.40722 C 304.28874,144.44491 303.60414,144.37628 302.80408,144.25473 C 300.98208,143.9779 300.62671,144.09558 300.8117,144.91443 C 300.88975,145.25986 301.13757,146.55138 301.36241,147.78452 C 301.93268,150.91212 301.78744,151.29076 299.59258,152.39862 C 298.63789,152.88051 296.51497,154.03333 294.87498,154.96046 C 291.23177,157.02004 291.34992,156.9765 289.04672,157.10763 C 282.61315,157.47385 277.18706,158.65533 273.25695,160.54568 C 269.45593,162.37396 262.78561,163.49912 255.81401,163.48798 C 254.25238,163.48547 252.9653,163.58745 252.88051,163.72038 C 252.63404,164.10676 251.92163,164.36457 251.40867,164.253 z"
     id="path1367"
     style="fill:url(#linearGradient3298-200);fill-opacity:1;stroke:none" />
  <path
     d="M 253.20857,164.93091 C 252.68805,164.8177 251.84524,163.95794 251.83195,163.52663 C 251.82739,163.37897 251.57977,162.95775 251.28166,162.59056 C 250.88772,162.10531 250.735,161.5758 250.72259,160.65204 C 250.71321,159.95304 250.62164,159.29993 250.51915,159.20068 C 250.41664,159.10144 250.3321,158.74036 250.33126,158.39829 C 250.3304,158.05623 250.1693,157.47844 249.97325,157.1143 C 249.64297,156.50084 249.65222,156.45223 250.09903,156.45223 C 250.39863,156.45223 250.58126,156.28729 250.58126,156.01674 C 250.58126,155.77723 250.73508,155.37745 250.9231,155.12834 C 251.15227,154.82465 251.20069,154.45847 251.07005,154.01707 C 250.96286,153.65498 250.92973,153.30588 250.9964,153.24126 C 251.0631,153.17665 251.16001,151.11141 251.21179,148.65184 C 251.26434,146.15503 251.43965,143.72667 251.6087,143.15375 C 251.77522,142.58939 251.89572,142.05802 251.87647,141.97291 C 251.85723,141.88784 252.10341,141.54436 252.42358,141.20965 C 252.87283,140.73998 253.02905,140.25335 253.10811,139.07723 C 253.16445,138.23911 253.40167,137.18463 253.63528,136.73396 C 253.8689,136.28329 254.06003,135.7209 254.06003,135.48424 C 254.06003,135.24757 254.1565,134.99615 254.27443,134.92555 C 254.39234,134.85494 254.63336,134.29698 254.81001,133.68567 C 254.98667,133.07434 255.28156,132.51828 255.4653,132.44996 C 255.64906,132.38164 255.79941,132.18643 255.79941,132.01612 C 255.79941,131.84585 255.96817,131.64379 256.17444,131.5671 C 256.3807,131.49039 256.52048,131.29566 256.48504,131.13432 C 256.44962,130.97299 256.63911,130.79527 256.90615,130.7394 C 257.44742,130.62613 257.95444,130.1866 260.59315,127.54322 C 261.26304,126.87217 261.74369,126.59927 262.25577,126.59927 C 262.65192,126.59927 263.0452,126.49092 263.12966,126.35852 C 263.33637,126.03449 265.32186,126.05093 265.66098,126.3795 C 266.16322,126.8661 266.1934,126.24065 265.75509,124.42992 L 265.31865,122.62691 L 263.23022,122.4744 C 260.35121,122.26416 257.25473,121.25224 256.11684,120.14978 C 255.28262,119.34151 255.24746,119.24024 255.37743,118.02015 C 255.55249,116.37666 255.18961,115.09284 254.45877,114.77021 C 254.14797,114.63301 253.71096,114.22105 253.48764,113.85476 C 253.13219,113.27178 253.1261,113.13181 253.43867,112.73172 C 253.95623,112.06923 253.89408,111.78651 253.15955,111.46226 C 252.54177,111.18954 252.51617,111.10859 252.6715,109.91892 C 253.04158,107.08476 252.81834,106.70701 250.63977,106.48096 C 248.63598,106.27306 248.09643,105.82697 248.09643,104.37825 C 248.09643,103.52423 248.33973,102.98738 249.48748,101.3087 C 250.25255,100.18971 251.0506,98.949175 251.2609,98.551926 C 251.47122,98.154685 251.96931,97.427705 252.36779,96.936379 C 252.9748,96.187952 253.06554,95.90489 252.9273,95.190945 C 252.77941,94.427089 252.8184,94.338808 253.30367,94.338808 C 253.70166,94.338808 253.81161,94.227237 253.71883,93.917499 C 253.01608,91.571288 253.01476,91.4632 253.67329,90.182832 C 254.02265,89.503539 254.30852,88.819869 254.30852,88.663549 C 254.30852,88.092452 255.90978,84.553623 256.73293,83.305585 C 257.66898,81.886372 258.91612,80.643676 260.33529,79.716025 C 260.84835,79.380632 261.61379,78.520904 262.03627,77.805481 C 262.78391,76.53941 264.60338,74.618461 266.11145,73.503013 C 266.52144,73.199755 267.94413,72.401439 269.27299,71.729 C 273.67448,69.501653 279.27464,68.560484 283.13357,69.399572 C 285.5524,69.925534 286.92291,70.432026 290.02483,71.946351 C 293.92978,73.852725 296.49424,76.639876 297.80077,80.397559 C 298.50572,82.425027 298.48541,86.458445 297.75887,88.71602 C 297.46674,89.623746 297.20245,90.745613 297.17153,91.20906 C 297.14061,91.672518 297.03746,93.026726 296.94227,94.218431 C 296.82234,95.720332 296.8882,97.19217 297.1569,99.01514 C 297.39527,100.63234 297.54457,103.34414 297.54457,106.05708 C 297.54457,108.53092 297.6434,110.46904 297.76956,110.46904 C 297.89331,110.46904 298.42443,110.26018 298.94985,110.00491 C 301.58024,108.72697 303.37876,108.04228 303.93126,108.10851 C 304.42338,108.16748 304.63444,108.43238 305.00517,109.45632 C 305.25895,110.15723 305.80867,111.04032 306.22675,111.41873 C 306.64485,111.79712 306.98692,112.29489 306.98692,112.5249 C 306.98692,112.75489 307.43419,113.4132 307.98085,113.9878 C 308.85418,114.90577 308.97479,115.1735 308.97479,116.19444 C 308.97479,117.20505 309.08741,117.46209 309.83979,118.16864 C 310.88425,119.14946 311.31543,120.29979 311.13287,121.61849 C 311.05812,122.15847 311.12221,122.82296 311.27527,123.09508 C 311.73266,123.90825 311.74099,129.18829 311.28677,130.38389 C 311.07449,130.94267 310.95693,131.60778 311.0255,131.86193 C 311.0941,132.11604 311.07428,132.44302 310.98144,132.58855 C 310.73706,132.97165 308.43721,133.34267 307.35832,133.17304 L 306.43509,133.02789 L 306.61342,136.25426 C 306.76252,138.95122 306.44142,144.76046 306.12533,145.08514 C 306.08863,145.12281 305.40404,145.05419 304.60398,144.93264 C 302.78196,144.65582 302.4266,144.77348 302.61161,145.59234 C 302.68964,145.93775 302.93745,147.22929 303.1623,148.46244 C 303.73256,151.59004 303.58733,151.96869 301.39248,153.07653 C 300.43777,153.55841 298.31486,154.71125 296.67487,155.63836 C 293.03167,157.69795 293.14982,157.65441 290.84662,157.78553 C 284.41306,158.15175 278.98695,159.33322 275.05685,161.22361 C 271.25581,163.05186 264.5855,164.17702 257.6139,164.16588 C 256.05227,164.16339 254.76519,164.26535 254.6804,164.39829 C 254.43393,164.78467 253.72151,165.04248 253.20857,164.93091 z"
     id="path3308"
     style="fill:#da9a42;fill-opacity:1;stroke:none" />
</svg>
